<svg xmlns="http://www.w3.org/2000/svg" xmlns:xlink="http://www.w3.org/1999/xlink" width="512" zoomAndPan="magnify" viewBox="0 0 384 383.999986" height="512" preserveAspectRatio="xMidYMid meet" version="1.0"><defs><clipPath id="94186c6fe4"><path d="M 7.085938 8.960938 L 375.402344 8.960938 L 375.402344 377.273438 L 7.085938 377.273438 Z M 7.085938 8.960938 " clip-rule="nonzero"/></clipPath><clipPath id="a2f794042e"><path d="M 191.242188 8.960938 C 89.535156 8.960938 7.085938 91.410156 7.085938 193.117188 C 7.085938 294.824219 89.535156 377.273438 191.242188 377.273438 C 292.949219 377.273438 375.402344 294.824219 375.402344 193.117188 C 375.402344 91.410156 292.949219 8.960938 191.242188 8.960938 Z M 191.242188 8.960938 " clip-rule="nonzero"/></clipPath><clipPath id="17c1507c96"><path d="M 7.085938 8.960938 L 374.367188 8.960938 L 374.367188 376.242188 L 7.085938 376.242188 Z M 7.085938 8.960938 " clip-rule="nonzero"/></clipPath><clipPath id="0df518d42f"><path d="M 191.234375 8.960938 C 89.53125 8.960938 7.085938 91.40625 7.085938 193.109375 C 7.085938 294.8125 89.53125 377.257812 191.234375 377.257812 C 292.9375 377.257812 375.382812 294.8125 375.382812 193.109375 C 375.382812 91.40625 292.9375 8.960938 191.234375 8.960938 Z M 191.234375 8.960938 " clip-rule="nonzero"/></clipPath><clipPath id="583cadc2c8"><path d="M 205.992188 0 L 384 0 L 384 193 L 205.992188 193 Z M 205.992188 0 " clip-rule="nonzero"/></clipPath><clipPath id="f7b102a49a"><path d="M 260.390625 85.585938 L 354.4375 85.585938 L 354.4375 153.671875 L 260.390625 153.671875 Z M 260.390625 85.585938 " clip-rule="nonzero"/></clipPath><clipPath id="af6566f8dd"><path d="M 137.910156 193.082031 L 205.992188 193.082031 L 205.992188 248.785156 L 137.910156 248.785156 Z M 137.910156 193.082031 " clip-rule="nonzero"/></clipPath></defs><g clip-path="url(#94186c6fe4)"><g clip-path="url(#a2f794042e)"><path fill="#393b3b" d="M 7.085938 8.960938 L 375.402344 8.960938 L 375.402344 377.273438 L 7.085938 377.273438 Z M 7.085938 8.960938 " fill-opacity="1" fill-rule="nonzero"/></g></g><g clip-path="url(#17c1507c96)"><g clip-path="url(#0df518d42f)"><path stroke-linecap="butt" transform="matrix(2.498524, 0, 0, 2.498524, 7.086024, 8.960183)" fill="none" stroke-linejoin="miter" d="M 73.702853 0.000301958 C 32.997572 0.000301958 -0.000034588 32.997908 -0.000034588 73.70319 C -0.000034588 114.408471 32.997572 147.406077 73.702853 147.406077 C 114.408135 147.406077 147.405741 114.408471 147.405741 73.70319 C 147.405741 32.997908 114.408135 0.000301958 73.702853 0.000301958 Z M 73.702853 0.000301958 " stroke="#393b3b" stroke-width="9.005316" stroke-opacity="1" stroke-miterlimit="4"/></g></g><g clip-path="url(#583cadc2c8)"><path fill="#ffffff" d="M 205.992188 -21.945312 L 408.835938 -21.945312 L 408.835938 192.785156 L 205.992188 192.785156 Z M 205.992188 -21.945312 " fill-opacity="1" fill-rule="nonzero"/></g><g clip-path="url(#f7b102a49a)"><path fill="#393b3b" d="M 260.390625 85.585938 L 354.539062 85.585938 L 354.539062 153.671875 L 260.390625 153.671875 Z M 260.390625 85.585938 " fill-opacity="1" fill-rule="nonzero"/></g><g clip-path="url(#af6566f8dd)"><path fill="#ffffff" d="M 137.910156 248.785156 L 137.910156 193.082031 L 206.019531 193.082031 L 206.019531 248.785156 Z M 137.910156 248.785156 " fill-opacity="1" fill-rule="nonzero"/></g></svg>