<svg xmlns="http://www.w3.org/2000/svg" xmlns:xlink="http://www.w3.org/1999/xlink" width="200" zoomAndPan="magnify" viewBox="0 0 150 37.5" height="50" preserveAspectRatio="xMidYMid meet" version="1.0"><defs><g/><clipPath id="b1037fd49c"><path d="M 0.988281 0 L 149.011719 0 L 149.011719 37.007812 L 0.988281 37.007812 Z M 0.988281 0 " clip-rule="nonzero"/></clipPath><clipPath id="7eec286f73"><path d="M 85.238281 0.980469 L 121.128906 0.980469 L 121.128906 36.871094 L 85.238281 36.871094 Z M 85.238281 0.980469 " clip-rule="nonzero"/></clipPath><clipPath id="d447e9c08f"><path d="M 103.183594 0.980469 C 93.273438 0.980469 85.238281 9.015625 85.238281 18.925781 C 85.238281 28.835938 93.273438 36.871094 103.183594 36.871094 C 113.09375 36.871094 121.128906 28.835938 121.128906 18.925781 C 121.128906 9.015625 113.09375 0.980469 103.183594 0.980469 Z M 103.183594 0.980469 " clip-rule="nonzero"/></clipPath><clipPath id="94522a5a35"><path d="M 85.238281 0.980469 L 121.109375 0.980469 L 121.109375 36.851562 L 85.238281 36.851562 Z M 85.238281 0.980469 " clip-rule="nonzero"/></clipPath><clipPath id="31d41d83df"><path d="M 103.175781 0.980469 C 93.269531 0.980469 85.238281 9.011719 85.238281 18.917969 C 85.238281 28.820312 93.269531 36.851562 103.175781 36.851562 C 113.082031 36.851562 121.109375 28.820312 121.109375 18.917969 C 121.109375 9.011719 113.082031 0.980469 103.175781 0.980469 Z M 103.175781 0.980469 " clip-rule="nonzero"/></clipPath><clipPath id="64105976b1"><path d="M 104.621094 0 L 124.386719 0 L 124.386719 18.925781 L 104.621094 18.925781 Z M 104.621094 0 " clip-rule="nonzero"/></clipPath><clipPath id="4dece40a90"><path d="M 109.921875 8.449219 L 119.085938 8.449219 L 119.085938 15.082031 L 109.921875 15.082031 Z M 109.921875 8.449219 " clip-rule="nonzero"/></clipPath><clipPath id="08899ebfa6"><path d="M 97.984375 18.921875 L 104.617188 18.921875 L 104.617188 24.347656 L 97.984375 24.347656 Z M 97.984375 18.921875 " clip-rule="nonzero"/></clipPath></defs><g clip-path="url(#b1037fd49c)"><path fill="#ffffff" d="M 0.988281 0 L 149.011719 0 L 149.011719 37.007812 L 0.988281 37.007812 Z M 0.988281 0 " fill-opacity="1" fill-rule="nonzero"/><path fill="#ffffff" d="M 0.988281 0 L 149.011719 0 L 149.011719 37.007812 L 0.988281 37.007812 Z M 0.988281 0 " fill-opacity="1" fill-rule="nonzero"/></g><g clip-path="url(#7eec286f73)"><g clip-path="url(#d447e9c08f)"><path fill="#393b3b" d="M 85.238281 0.980469 L 121.128906 0.980469 L 121.128906 36.871094 L 85.238281 36.871094 Z M 85.238281 0.980469 " fill-opacity="1" fill-rule="nonzero"/></g></g><g clip-path="url(#94522a5a35)"><g clip-path="url(#31d41d83df)"><path stroke-linecap="butt" transform="matrix(2.282093, 0, 0, 2.282093, 85.238922, 0.980619)" fill="none" stroke-linejoin="miter" d="M 7.859829 -0.0000660526 C 3.518967 -0.0000660526 -0.000280895 3.519182 -0.000280895 7.860043 C -0.000280895 12.199194 3.518967 15.718441 7.859829 15.718441 C 12.20069 15.718441 15.718226 12.199194 15.718226 7.860043 C 15.718226 3.519182 12.20069 -0.0000660526 7.859829 -0.0000660526 Z M 7.859829 -0.0000660526 " stroke="#393b3b" stroke-width="9.729642" stroke-opacity="1" stroke-miterlimit="4"/></g></g><g clip-path="url(#64105976b1)"><path fill="#ffffff" d="M 104.621094 -2.03125 L 124.386719 -2.03125 L 124.386719 18.894531 L 104.621094 18.894531 Z M 104.621094 -2.03125 " fill-opacity="1" fill-rule="nonzero"/></g><g clip-path="url(#4dece40a90)"><path fill="#393b3b" d="M 109.921875 8.449219 L 119.097656 8.449219 L 119.097656 15.082031 L 109.921875 15.082031 Z M 109.921875 8.449219 " fill-opacity="1" fill-rule="nonzero"/></g><g clip-path="url(#08899ebfa6)"><path fill="#ffffff" d="M 97.984375 24.347656 L 97.984375 18.921875 L 104.621094 18.921875 L 104.621094 24.347656 Z M 97.984375 24.347656 " fill-opacity="1" fill-rule="nonzero"/></g><g fill="#393b3b" fill-opacity="1"><g transform="translate(-0.518052, 30.406067)"><g><path d="M 2.234375 -24.125 L 7.0625 -24.125 L 7.0625 0 L 2.234375 0 Z M 2.234375 -24.125 "/></g></g></g><g fill="#393b3b" fill-opacity="1"><g transform="translate(7.926057, 30.406067)"><g><path d="M 10.171875 0.34375 C 8.785156 0.34375 7.539062 0.128906 6.4375 -0.296875 C 5.34375 -0.722656 4.40625 -1.335938 3.625 -2.140625 C 2.84375 -2.941406 2.242188 -3.925781 1.828125 -5.09375 C 1.410156 -6.269531 1.203125 -7.617188 1.203125 -9.140625 C 1.203125 -10.648438 1.410156 -11.988281 1.828125 -13.15625 C 2.242188 -14.332031 2.84375 -15.320312 3.625 -16.125 C 4.40625 -16.9375 5.34375 -17.550781 6.4375 -17.96875 C 7.539062 -18.394531 8.785156 -18.609375 10.171875 -18.609375 C 11.503906 -18.609375 12.707031 -18.382812 13.78125 -17.9375 C 14.863281 -17.488281 15.789062 -16.859375 16.5625 -16.046875 C 17.332031 -15.234375 17.921875 -14.269531 18.328125 -13.15625 C 18.742188 -12.039062 18.953125 -10.816406 18.953125 -9.484375 C 18.953125 -9.222656 18.941406 -8.976562 18.921875 -8.75 C 18.898438 -8.519531 18.878906 -8.316406 18.859375 -8.140625 C 18.828125 -7.929688 18.800781 -7.742188 18.78125 -7.578125 L 6.203125 -7.578125 C 6.390625 -6.546875 6.789062 -5.6875 7.40625 -5 C 8.03125 -4.3125 8.953125 -3.96875 10.171875 -3.96875 C 11.109375 -3.96875 11.800781 -4.117188 12.25 -4.421875 C 12.695312 -4.734375 13.09375 -5.15625 13.4375 -5.6875 L 18.609375 -5.6875 C 18.398438 -4.90625 18.082031 -4.148438 17.65625 -3.421875 C 17.238281 -2.703125 16.691406 -2.0625 16.015625 -1.5 C 15.335938 -0.9375 14.515625 -0.488281 13.546875 -0.15625 C 12.578125 0.175781 11.453125 0.34375 10.171875 0.34375 Z M 13.953125 -11.203125 C 13.867188 -11.585938 13.726562 -11.960938 13.53125 -12.328125 C 13.332031 -12.703125 13.078125 -13.035156 12.765625 -13.328125 C 12.460938 -13.628906 12.09375 -13.863281 11.65625 -14.03125 C 11.21875 -14.207031 10.722656 -14.296875 10.171875 -14.296875 C 9.046875 -14.296875 8.164062 -14 7.53125 -13.40625 C 6.894531 -12.8125 6.453125 -12.078125 6.203125 -11.203125 Z M 13.953125 -11.203125 "/></g></g></g><g fill="#393b3b" fill-opacity="1"><g transform="translate(27.227031, 30.406067)"><g><path d="M 10.171875 0.34375 C 8.785156 0.34375 7.539062 0.128906 6.4375 -0.296875 C 5.34375 -0.722656 4.40625 -1.335938 3.625 -2.140625 C 2.84375 -2.941406 2.242188 -3.925781 1.828125 -5.09375 C 1.410156 -6.269531 1.203125 -7.617188 1.203125 -9.140625 C 1.203125 -10.648438 1.410156 -11.988281 1.828125 -13.15625 C 2.242188 -14.332031 2.84375 -15.320312 3.625 -16.125 C 4.40625 -16.9375 5.34375 -17.550781 6.4375 -17.96875 C 7.539062 -18.394531 8.785156 -18.609375 10.171875 -18.609375 C 11.546875 -18.609375 12.785156 -18.394531 13.890625 -17.96875 C 14.992188 -17.550781 15.9375 -16.9375 16.71875 -16.125 C 17.5 -15.320312 18.09375 -14.332031 18.5 -13.15625 C 18.914062 -11.988281 19.125 -10.648438 19.125 -9.140625 C 19.125 -7.617188 18.914062 -6.269531 18.5 -5.09375 C 18.09375 -3.925781 17.5 -2.941406 16.71875 -2.140625 C 15.9375 -1.335938 14.992188 -0.722656 13.890625 -0.296875 C 12.785156 0.128906 11.546875 0.34375 10.171875 0.34375 Z M 10.171875 -3.96875 C 10.722656 -3.96875 11.25 -4.0625 11.75 -4.25 C 12.257812 -4.445312 12.703125 -4.757812 13.078125 -5.1875 C 13.460938 -5.613281 13.757812 -6.15625 13.96875 -6.8125 C 14.1875 -7.46875 14.296875 -8.242188 14.296875 -9.140625 C 14.296875 -10.035156 14.1875 -10.804688 13.96875 -11.453125 C 13.757812 -12.109375 13.460938 -12.648438 13.078125 -13.078125 C 12.703125 -13.503906 12.257812 -13.8125 11.75 -14 C 11.25 -14.195312 10.722656 -14.296875 10.171875 -14.296875 C 9.617188 -14.296875 9.085938 -14.195312 8.578125 -14 C 8.078125 -13.8125 7.632812 -13.503906 7.25 -13.078125 C 6.875 -12.648438 6.578125 -12.109375 6.359375 -11.453125 C 6.140625 -10.804688 6.03125 -10.035156 6.03125 -9.140625 C 6.03125 -8.242188 6.140625 -7.46875 6.359375 -6.8125 C 6.578125 -6.15625 6.875 -5.613281 7.25 -5.1875 C 7.632812 -4.757812 8.078125 -4.445312 8.578125 -4.25 C 9.085938 -4.0625 9.617188 -3.96875 10.171875 -3.96875 Z M 10.171875 -3.96875 "/></g></g></g><g fill="#393b3b" fill-opacity="1"><g transform="translate(46.700336, 30.406067)"><g><path d="M 3.96875 0.171875 C 3.1875 0.171875 2.53125 -0.0859375 2 -0.609375 C 1.46875 -1.140625 1.203125 -1.796875 1.203125 -2.578125 C 1.203125 -3.359375 1.46875 -4.015625 2 -4.546875 C 2.53125 -5.078125 3.1875 -5.34375 3.96875 -5.34375 C 4.75 -5.34375 5.398438 -5.078125 5.921875 -4.546875 C 6.453125 -4.015625 6.71875 -3.359375 6.71875 -2.578125 C 6.71875 -1.796875 6.453125 -1.140625 5.921875 -0.609375 C 5.398438 -0.0859375 4.75 0.171875 3.96875 0.171875 Z M 3.96875 0.171875 "/></g></g></g><g fill="#393b3b" fill-opacity="1"><g transform="translate(53.765793, 30.406067)"><g><path d="M 7.40625 0.34375 C 6.414062 0.34375 5.523438 0.203125 4.734375 -0.078125 C 3.941406 -0.367188 3.269531 -0.765625 2.71875 -1.265625 C 2.164062 -1.773438 1.742188 -2.375 1.453125 -3.0625 C 1.171875 -3.757812 1.03125 -4.519531 1.03125 -5.34375 C 1.03125 -6.164062 1.179688 -6.921875 1.484375 -7.609375 C 1.785156 -8.304688 2.234375 -8.90625 2.828125 -9.40625 C 3.421875 -9.914062 4.15625 -10.3125 5.03125 -10.59375 C 5.90625 -10.882812 6.925781 -11.03125 8.09375 -11.03125 L 12.40625 -11.03125 L 12.40625 -11.890625 C 12.40625 -12.765625 12.128906 -13.414062 11.578125 -13.84375 C 11.023438 -14.269531 10.269531 -14.484375 9.3125 -14.484375 C 8.613281 -14.484375 8.023438 -14.332031 7.546875 -14.03125 C 7.066406 -13.726562 6.734375 -13.359375 6.546875 -12.921875 L 1.71875 -12.921875 C 1.882812 -13.660156 2.164062 -14.367188 2.5625 -15.046875 C 2.96875 -15.722656 3.484375 -16.320312 4.109375 -16.84375 C 4.742188 -17.375 5.503906 -17.800781 6.390625 -18.125 C 7.273438 -18.445312 8.304688 -18.609375 9.484375 -18.609375 C 11.910156 -18.609375 13.804688 -18.019531 15.171875 -16.84375 C 16.546875 -15.675781 17.234375 -13.96875 17.234375 -11.71875 L 17.234375 0 L 13.09375 0 L 12.578125 -2.0625 L 12.40625 -2.0625 C 12.226562 -1.8125 12 -1.539062 11.71875 -1.25 C 11.445312 -0.96875 11.101562 -0.707031 10.6875 -0.46875 C 10.269531 -0.226562 9.789062 -0.0351562 9.25 0.109375 C 8.707031 0.265625 8.09375 0.34375 7.40625 0.34375 Z M 8.609375 -3.625 C 9.742188 -3.625 10.660156 -3.9375 11.359375 -4.5625 C 12.054688 -5.195312 12.40625 -6.03125 12.40625 -7.0625 L 12.40625 -7.578125 L 8.265625 -7.578125 C 7.398438 -7.578125 6.78125 -7.394531 6.40625 -7.03125 C 6.039062 -6.664062 5.859375 -6.21875 5.859375 -5.6875 C 5.859375 -5.09375 6.078125 -4.597656 6.515625 -4.203125 C 6.953125 -3.816406 7.648438 -3.625 8.609375 -3.625 Z M 8.609375 -3.625 "/></g></g></g><g fill="#393b3b" fill-opacity="1"><g transform="translate(72.032777, 30.406067)"><g><path d="M 2.0625 -18.265625 L 6.890625 -18.265625 L 6.890625 0 L 2.0625 0 Z M 4.484375 -20.171875 C 3.703125 -20.171875 3.046875 -20.429688 2.515625 -20.953125 C 1.984375 -21.484375 1.71875 -22.140625 1.71875 -22.921875 C 1.71875 -23.703125 1.984375 -24.351562 2.515625 -24.875 C 3.046875 -25.40625 3.703125 -25.671875 4.484375 -25.671875 C 5.265625 -25.671875 5.914062 -25.40625 6.4375 -24.875 C 6.96875 -24.351562 7.234375 -23.703125 7.234375 -22.921875 C 7.234375 -22.140625 6.96875 -21.484375 6.4375 -20.953125 C 5.914062 -20.429688 5.265625 -20.171875 4.484375 -20.171875 Z M 4.484375 -20.171875 "/></g></g></g></svg>